<svg xmlns="http://www.w3.org/2000/svg" viewBox="0 0 1200 360" width="1200" height="360">
  <defs>
    <style>
      @import url('https://fonts.googleapis.com/css2?family=Lora:ital,wght@1,400&amp;family=Poppins:wght@700&amp;display=swap');
      .wordmark {
        font-family: 'Poppins', 'Helvetica Neue', sans-serif;
        font-weight: 700;
        fill: #1A1A1A;
        letter-spacing: -1.5px;
      }
      .tagline {
        font-family: 'Lora', Georgia, serif;
        font-style: italic;
        font-weight: 400;
        fill: #555555;
      }
    </style>
  </defs>

  <!-- Crimson square -->
  <rect x="30" y="60" width="240" height="240" rx="12" ry="12" fill="#D6285F"/>

  <!-- EA monogram as vector paths (Lora SemiBold) — renders identically without the font installed -->
  <g transform="translate(47.84, 230.7024)" fill="#FFFFFF">
    <path d="M63.093291015625 -39.51994140625Q63.093291015625 -46.3466015625 61.06662109375 -49.386601562500005Q59.039951171875 -52.426601562500004 55.2532958984375 -53.1199365234375Q51.466640625000004 -53.813271484375 46.293359375 -53.599941406250004L39.626845703125 -53.33328125V-23.626826171875Q39.626845703125 -19.306826171875 39.493510742187496 -15.7334765625Q39.36017578125 -12.160126953125001 39.04017578125 -10.080126953125001L63.519990234375 -10.240117187500001Q69.066611328125 -10.293447265625 73.75993164062501 -12.453447265625Q78.453251953125 -14.613447265625 81.333251953125 -19.7867724609375Q84.213251953125 -24.96009765625 84.213251953125 -33.866748046875H92.96001953125L92.106689453125 0.0H8.266650390625V-8.800107421875Q12.7466015625 -9.0134375 15.1466064453125 -10.3734033203125Q17.546611328125 -11.733369140625 18.53330078125 -15.120004882812498Q19.519990234375 -18.506640625 19.519990234375 -24.639990234375002V-88.5331640625Q19.519990234375 -92.479853515625 19.733325195312503 -96.1332080078125Q19.94666015625 -99.7865625 20.10666015625 -101.97322265625Q17.44 -101.81322265625 13.919980468750001 -101.70655761718751Q10.3999609375 -101.59989257812501 8.266650390625 -101.439892578125V-112.0H87.25337890625L88.160048828125 -81.973271484375H79.35994140625Q79.35994140625 -90.986591796875 76.37327148437501 -95.5999169921875Q73.3866015625 -100.2132421875 68.7732763671875 -101.78657226562501Q64.15995117187501 -103.35990234375001 59.2533203125 -103.19990234375L50.82681640625 -102.986572265625Q46.61353515625 -102.9332421875 44.160205078125 -101.6532666015625Q41.706875000000004 -100.373291015625 40.666860351562505 -97.03998046875Q39.626845703125 -93.706669921875 39.626845703125 -87.36000976562501V-62.826708984375L62.13328125 -62.77337890625L61.333291015625 -76.640048828125H71.8933984375V-39.51994140625ZM99.78669921875 0.0V-9.1201171875Q104.373359375 -9.1201171875 107.040029296875 -11.6801171875Q109.70669921875 -14.240117187500001 111.493369140625 -18.506777343750002Q113.28003906250001 -22.7734375 115.200029296875 -27.946748046875L146.98666015625003 -114.933330078125H155.73347656250002L190.34677734375 -26.453408203125Q191.41343750000001 -23.733427734375 193.0134375 -18.7201025390625Q194.6134375 -13.70677734375 194.72011718750002 -10.02677734375Q197.4401171875 -10.293447265625 200.0001123046875 -10.4001123046875Q202.560107421875 -10.50677734375 204.53341796875003 -10.560107421875001V0.0H163.62662109375V-8.800107421875Q168.63992187500003 -8.8534375 170.3999169921875 -10.9334228515625Q172.159912109375 -13.013408203125 171.893251953125 -16.320068359375Q171.626591796875 -19.626728515625 170.18658203125 -23.25341796875L166.18663085937501 -34.133291015625L129.1734375 -33.386630859375L125.600166015625 -22.666826171875Q124.69350585937501 -20.0001953125 123.38682617187501 -16.5334912109375Q122.080146484375 -13.066787109375 120.8534765625 -10.346787109375Q123.62679687500001 -10.61345703125 127.066806640625 -10.7201220703125Q130.50681640625 -10.826787109375001 132.586787109375 -10.8801171875V0.0ZM132.64013671875 -43.680068359375H162.77326171875L154.080009765625 -67.199853515625Q152.106669921875 -72.693203125 150.4266748046875 -78.21322265625Q148.7466796875 -83.7332421875 147.62669921875 -88.373232421875H147.413369140625Q146.45338867187502 -85.0666015625 145.04006347656252 -79.94658203125Q143.62673828125 -74.82656250000001 141.22671875 -68.26650390625Z"/>
  </g>

  <!-- Wordmark -->
  <text x="306" y="176" class="wordmark" font-size="78">Economics Academy</text>

  <!-- Tagline -->
  <text x="310" y="226" class="tagline" font-size="32">The Home of A-Level Economics.</text>
</svg>
