<svg xmlns="http://www.w3.org/2000/svg" viewBox="0 0 700 620" width="700" height="620">
  <defs>
    <style>
      @import url('https://fonts.googleapis.com/css2?family=Lora:ital,wght@1,400&amp;family=Poppins:wght@700&amp;display=swap');
      .wordmark {
        font-family: 'Poppins', 'Helvetica Neue', sans-serif;
        font-weight: 700;
        fill: #1A1A1A;
        letter-spacing: -1.5px;
      }
      .tagline {
        font-family: 'Lora', Georgia, serif;
        font-style: italic;
        font-weight: 400;
        fill: #555555;
      }
    </style>
  </defs>

  <rect x="240.0" y="30" width="220" height="220" rx="12" ry="12" fill="#D6285F"/>
  <g transform="translate(260.61, 184.3646)" fill="#FFFFFF">
    <path d="M55.20662963867188 -34.57994873046875Q55.20662963867188 -40.55327636718751 53.433293457031255 -43.213276367187504Q51.65995727539063 -45.87327636718751 48.34663391113282 -46.47994445800782Q45.03331054687501 -47.08661254882813 40.506689453125006 -46.89994873046876L34.67348999023438 -46.66662109375V-20.673472900390628Q34.67348999023438 -16.893472900390627 34.55682189941407 -13.766791992187501Q34.440153808593756 -10.640111083984376 34.160153808593755 -8.820111083984376L55.57999145507813 -8.9601025390625Q60.43328491210938 -9.006766357421876 64.53994018554688 -10.896766357421876Q68.64659545898438 -12.786766357421877 71.16659545898438 -17.313425903320315Q73.68659545898439 -21.84008544921875 73.68659545898439 -29.63340454101563H81.34001708984376L80.59335327148439 0.0H7.233319091796876V-7.700093994140626Q11.153276367187502 -7.886757812500001 13.25328063964844 -9.076727905273438Q15.353284912109377 -10.266697998046876 16.21663818359375 -13.230004272460938Q17.079991455078126 -16.193310546875 17.079991455078126 -21.559991455078126V-77.46651855468751Q17.079991455078126 -80.91987182617189 17.266659545898438 -84.11655700683595Q17.45332763671875 -87.31324218750001 17.59332763671875 -89.22656982421876Q15.260000000000002 -89.08656982421876 12.179982910156252 -88.99323791503906Q9.099965820312502 -88.89990600585938 7.233319091796876 -88.75990600585938V-98.00000000000001H76.34670654296876L77.14004272460939 -71.72661254882813H69.43994873046876Q69.43994873046876 -79.61326782226563 66.82661254882814 -83.64992736816407Q64.2132763671875 -87.6865869140625 60.176616821289066 -89.06325073242188Q56.13995727539063 -90.43991455078125 51.846655273437506 -90.29991455078125L44.47346435546876 -90.11325073242189Q40.78684326171875 -90.06658691406251 38.64017944335937 -88.9466082763672Q36.493515625 -87.82662963867189 35.583502807617194 -84.90998291015626Q34.67348999023438 -81.99333618164063 34.67348999023438 -76.44000854492188V-54.97337036132813L54.366621093750005 -54.92670654296875L53.66662963867188 -67.06004272460937H62.90672363281251V-34.57994873046875ZM87.31336181640626 0.0V-7.980102539062501Q91.32668945312501 -7.980102539062501 93.66002563476565 -10.2201025390625Q95.99336181640626 -12.4601025390625 97.55669799804689 -16.193430175781252Q99.12003417968751 -19.926757812500004 100.80002563476563 -24.453404541015626L128.61332763671876 -100.56666381835939H136.2667919921875L166.55343017578127 -23.14673217773438Q167.4867578125 -20.766749267578128 168.8867578125 -16.38008972167969Q170.2867578125 -11.993430175781251 170.38010253906253 -8.77343017578125Q172.76010253906253 -9.006766357421876 175.00009826660158 -9.100098266601563Q177.24009399414064 -9.19343017578125 178.96674072265625 -9.240093994140626V0.0H143.17329345703126V-7.700093994140626Q147.55993164062502 -7.746757812500001 149.0999273681641 -9.566744995117189Q150.63992309570315 -11.386732177734377 150.40659545898438 -14.280059814453127Q150.17326782226564 -17.173387451171877 148.91325927734377 -20.346740722656254L145.41330200195313 -29.866629638671878L113.02675781250002 -29.213302001953128L109.90014526367189 -19.83347290039063Q109.10681762695314 -17.500170898437503 107.96347290039064 -14.466804809570315Q106.82012817382814 -11.433438720703126 105.74679199218751 -9.053438720703125Q108.17344726562501 -9.286774902343751 111.18345581054689 -9.380106811523438Q114.19346435546876 -9.473438720703125 116.01343872070314 -9.520102539062501V0.0ZM116.06011962890626 -38.22005981445313H142.42660400390628L134.8200085449219 -58.79987182617188Q133.09333618164064 -63.60655273437501 131.6233404541016 -68.43656982421875Q130.15334472656252 -73.2665869140625 129.17336181640627 -77.32657836914063H128.9866979980469Q128.14671508789064 -74.4332763671875 126.91005554199221 -69.95325927734376Q125.67339599609377 -65.4732421875 123.57337890625001 -59.733190917968756Z"/>
  </g>

  <text x="350.0" y="340" class="wordmark" font-size="60" text-anchor="middle">Economics Academy</text>
  <text x="350.0" y="385" class="tagline" font-size="28" text-anchor="middle">The Home of A-Level Economics.</text>
</svg>
