<svg xmlns="http://www.w3.org/2000/svg" viewBox="0 0 400 400" width="400" height="400">
  <rect x="0" y="0" width="400" height="400" rx="24" ry="24" fill="#D6285F"/>
  <g transform="translate(46.75999999999999, 276.0536)" fill="#FFFFFF">
    <path d="M94.6399365234375 -59.279912109375Q94.6399365234375 -69.51990234374999 91.59993164062499 -74.07990234374999Q88.55992675781249 -78.63990234375 82.87994384765625 -79.67990478515625Q77.1999609375 -80.7199072265625 69.44003906249999 -80.399912109375L59.4402685546875 -79.999921875V-35.4402392578125Q59.4402685546875 -28.9602392578125 59.24026611328125 -23.60021484375Q59.040263671874996 -18.240190429687498 58.560263671875 -15.120190429687499L95.2799853515625 -15.36017578125Q103.5999169921875 -15.440170898437499 110.6398974609375 -18.6801708984375Q117.67987792968749 -21.920170898437497 121.9998779296875 -29.68015869140625Q126.3198779296875 -37.440146484375 126.3198779296875 -50.8001220703125H139.440029296875L138.1600341796875 0.0H12.399975585937499V-13.2001611328125Q19.11990234375 -13.52015625 22.71990966796875 -15.560104980468749Q26.319916992187498 -17.600053710937498 27.799951171874998 -22.68000732421875Q29.279985351562498 -27.7599609375 29.279985351562498 -36.9599853515625V-132.79974609375Q29.279985351562498 -138.7197802734375 29.599987792968747 -144.19981201171873Q29.919990234375 -149.67984375 30.159990234374998 -152.959833984375Q26.16 -152.719833984375 20.879970703125 -152.55983642578124Q15.59994140625 -152.3998388671875 12.399975585937499 -152.1598388671875V-168.0H130.880068359375L132.2400732421875 -122.95990722656249H119.039912109375Q119.039912109375 -136.4798876953125 114.5599072265625 -143.39987548828125Q110.07990234374999 -150.31986328125 103.15991455078125 -152.6798583984375Q96.2399267578125 -155.039853515625 88.87998046874999 -154.799853515625L76.24022460937499 -154.4798583984375Q69.920302734375 -154.39986328125 66.2403076171875 -152.47989990234373Q62.560312499999995 -150.5599365234375 61.00029052734375 -145.559970703125Q59.4402685546875 -140.5600048828125 59.4402685546875 -131.0400146484375V-94.2400634765625L93.199921875 -94.160068359375L91.9999365234375 -114.96007324218749H107.84009765625V-59.279912109375ZM149.680048828125 0.0V-13.68017578125Q156.56003906249998 -13.68017578125 160.5600439453125 -17.52017578125Q164.560048828125 -21.36017578125 167.2400537109375 -27.760166015625Q169.92005859374999 -34.16015625 172.8000439453125 -41.9201220703125L220.47999023437498 -172.3999951171875H233.60021484375L285.52016601562497 -39.6801123046875Q287.12015625 -35.6001416015625 289.52015625 -28.08015380859375Q291.92015625 -20.560166015625 292.08017578125 -15.040166015625Q296.16017578125 -15.440170898437499 300.00016845703124 -15.600168457031248Q303.84016113281245 -15.760166015625 306.80012695312496 -15.840161132812499V0.0H245.439931640625V-13.2001611328125Q252.95988281249998 -13.28015625 255.59987548828124 -16.40013427734375Q258.2398681640625 -19.520112304687498 257.8398779296875 -24.4801025390625Q257.43988769531245 -29.4400927734375 255.27987304687497 -34.880126953125L249.27994628906248 -51.1999365234375L193.76015624999997 -50.0799462890625L188.40024902343748 -34.000239257812495Q187.04025878906248 -30.00029296875 185.08023925781248 -24.800236816406247Q183.12021972656248 -19.6001806640625 181.28021484374997 -15.520180664062499Q185.44019531249998 -15.920185546874999 190.6002099609375 -16.08018310546875Q195.76022460937497 -16.2401806640625 198.8801806640625 -16.32017578125V0.0ZM198.96020507812497 -65.52010253906249H244.15989257812498L231.12001464843746 -100.79978027343749Q228.16000488281247 -109.0398046875 225.64001220703122 -117.319833984375Q223.12001953124997 -125.59986328125 221.440048828125 -132.5598486328125H221.1200537109375Q219.68008300781247 -127.59990234374999 217.56009521484373 -119.91987304687498Q215.44010742187498 -112.23984374999999 211.840078125 -102.39975585937499Z"/>
  </g>
</svg>
